<mxfile host="app.diagrams.net" modified="2022-12-07T12:13:50.775Z" agent="5.0 (Windows NT 10.0; Win64; x64) AppleWebKit/537.36 (KHTML, like Gecko) Chrome/107.0.0.0 Safari/537.36" version="20.6.0" etag="LjHgvBKypgEJ0LPDLqCf" type="github">
  <diagram id="hfMsOH1zCKEbNMQi9sZN" name="Page-1">
    <mxGraphModel dx="868" dy="-677" grid="1" gridSize="10" guides="1" tooltips="1" connect="1" arrows="1" fold="1" page="1" pageScale="1" pageWidth="827" pageHeight="1169" math="0" shadow="0">
      <root>
        <mxCell id="0" />
        <mxCell id="1" parent="0" />
        <mxCell id="i35wyXqigZs_7jGTzk2A-1" value="" style="rounded=0;whiteSpace=wrap;html=1;" vertex="1" parent="1">
          <mxGeometry x="120" y="1200" width="570" height="510" as="geometry" />
        </mxCell>
        <mxCell id="i35wyXqigZs_7jGTzk2A-2" value="&lt;b&gt;&lt;font style=&quot;font-size: 13px;&quot;&gt;Système de reconnaissance des formes&lt;/font&gt;&lt;/b&gt;" style="rounded=0;whiteSpace=wrap;html=1;" vertex="1" parent="1">
          <mxGeometry x="120" y="1200" width="510" height="40" as="geometry" />
        </mxCell>
        <mxCell id="i35wyXqigZs_7jGTzk2A-3" value="utilisateur" style="shape=umlActor;verticalLabelPosition=bottom;verticalAlign=top;html=1;outlineConnect=0;fontSize=13;" vertex="1" parent="1">
          <mxGeometry x="30" y="1570" width="30" height="60" as="geometry" />
        </mxCell>
        <mxCell id="i35wyXqigZs_7jGTzk2A-4" value="admin" style="shape=umlActor;verticalLabelPosition=bottom;verticalAlign=top;html=1;outlineConnect=0;fontSize=13;" vertex="1" parent="1">
          <mxGeometry x="750" y="1390" width="30" height="60" as="geometry" />
        </mxCell>
        <mxCell id="i35wyXqigZs_7jGTzk2A-5" value="démarrer le système" style="ellipse;whiteSpace=wrap;html=1;fontSize=13;" vertex="1" parent="1">
          <mxGeometry x="440" y="1250" width="180" height="50" as="geometry" />
        </mxCell>
        <mxCell id="i35wyXqigZs_7jGTzk2A-6" value="controler la webcam" style="ellipse;whiteSpace=wrap;html=1;fontSize=13;" vertex="1" parent="1">
          <mxGeometry x="200" y="1250" width="180" height="50" as="geometry" />
        </mxCell>
        <mxCell id="i35wyXqigZs_7jGTzk2A-7" value="traitement en temps reel des images" style="ellipse;whiteSpace=wrap;html=1;fontSize=13;" vertex="1" parent="1">
          <mxGeometry x="140" y="1330" width="180" height="70" as="geometry" />
        </mxCell>
        <mxCell id="i35wyXqigZs_7jGTzk2A-8" value="lancement de l&#39;interface" style="ellipse;whiteSpace=wrap;html=1;fontSize=13;" vertex="1" parent="1">
          <mxGeometry x="370" y="1350" width="180" height="50" as="geometry" />
        </mxCell>
        <mxCell id="i35wyXqigZs_7jGTzk2A-9" value="" style="endArrow=none;html=1;rounded=0;fontSize=13;entryX=1;entryY=1;entryDx=0;entryDy=0;" edge="1" parent="1" source="i35wyXqigZs_7jGTzk2A-4" target="i35wyXqigZs_7jGTzk2A-5">
          <mxGeometry width="50" height="50" relative="1" as="geometry">
            <mxPoint x="390" y="1470" as="sourcePoint" />
            <mxPoint x="440" y="1420" as="targetPoint" />
          </mxGeometry>
        </mxCell>
        <mxCell id="i35wyXqigZs_7jGTzk2A-10" value="&lt;font style=&quot;font-size: 10px;&quot;&gt;include&lt;/font&gt;" style="endArrow=none;dashed=1;html=1;rounded=0;fontSize=13;entryX=0.344;entryY=0.96;entryDx=0;entryDy=0;entryPerimeter=0;exitX=0.5;exitY=0;exitDx=0;exitDy=0;" edge="1" parent="1">
          <mxGeometry width="50" height="50" relative="1" as="geometry">
            <mxPoint x="230" y="1330" as="sourcePoint" />
            <mxPoint x="281.9200000000001" y="1298" as="targetPoint" />
          </mxGeometry>
        </mxCell>
        <mxCell id="i35wyXqigZs_7jGTzk2A-12" value="include" style="endArrow=none;dashed=1;html=1;rounded=0;fontSize=10;entryX=0.217;entryY=0.02;entryDx=0;entryDy=0;entryPerimeter=0;" edge="1" parent="1" source="i35wyXqigZs_7jGTzk2A-6" target="i35wyXqigZs_7jGTzk2A-8">
          <mxGeometry width="50" height="50" relative="1" as="geometry">
            <mxPoint x="390" y="1470" as="sourcePoint" />
            <mxPoint x="440" y="1420" as="targetPoint" />
          </mxGeometry>
        </mxCell>
        <mxCell id="i35wyXqigZs_7jGTzk2A-14" value="include" style="endArrow=none;dashed=1;html=1;rounded=0;fontSize=10;entryX=1;entryY=0.5;entryDx=0;entryDy=0;exitX=0.089;exitY=0.18;exitDx=0;exitDy=0;exitPerimeter=0;" edge="1" parent="1" source="i35wyXqigZs_7jGTzk2A-5" target="i35wyXqigZs_7jGTzk2A-6">
          <mxGeometry width="50" height="50" relative="1" as="geometry">
            <mxPoint x="390" y="1470" as="sourcePoint" />
            <mxPoint x="440" y="1420" as="targetPoint" />
          </mxGeometry>
        </mxCell>
        <mxCell id="i35wyXqigZs_7jGTzk2A-15" value="se présenter devant la webcam pour le contrôle" style="ellipse;whiteSpace=wrap;html=1;fontSize=13;" vertex="1" parent="1">
          <mxGeometry x="150" y="1450" width="180" height="70" as="geometry" />
        </mxCell>
        <mxCell id="i35wyXqigZs_7jGTzk2A-16" value="include" style="endArrow=none;dashed=1;html=1;rounded=0;fontSize=10;" edge="1" parent="1" source="i35wyXqigZs_7jGTzk2A-15" target="i35wyXqigZs_7jGTzk2A-8">
          <mxGeometry width="50" height="50" relative="1" as="geometry">
            <mxPoint x="390" y="1470" as="sourcePoint" />
            <mxPoint x="440" y="1420" as="targetPoint" />
          </mxGeometry>
        </mxCell>
        <mxCell id="i35wyXqigZs_7jGTzk2A-17" value="détection de la forme attendue en temps réel" style="ellipse;whiteSpace=wrap;html=1;fontSize=13;" vertex="1" parent="1">
          <mxGeometry x="160" y="1610" width="190" height="60" as="geometry" />
        </mxCell>
        <mxCell id="i35wyXqigZs_7jGTzk2A-19" value="" style="endArrow=none;html=1;rounded=0;fontSize=10;exitX=0.75;exitY=0.1;exitDx=0;exitDy=0;exitPerimeter=0;entryX=0;entryY=0.5;entryDx=0;entryDy=0;" edge="1" parent="1" source="i35wyXqigZs_7jGTzk2A-3" target="i35wyXqigZs_7jGTzk2A-15">
          <mxGeometry width="50" height="50" relative="1" as="geometry">
            <mxPoint x="390" y="1540" as="sourcePoint" />
            <mxPoint x="440" y="1490" as="targetPoint" />
          </mxGeometry>
        </mxCell>
        <mxCell id="i35wyXqigZs_7jGTzk2A-20" value="affichage du taux de précision" style="ellipse;whiteSpace=wrap;html=1;fontSize=13;" vertex="1" parent="1">
          <mxGeometry x="470" y="1570" width="180" height="60" as="geometry" />
        </mxCell>
        <mxCell id="i35wyXqigZs_7jGTzk2A-21" value="include" style="endArrow=none;dashed=1;html=1;rounded=0;fontSize=10;exitX=0.722;exitY=0.071;exitDx=0;exitDy=0;exitPerimeter=0;entryX=0.5;entryY=1;entryDx=0;entryDy=0;" edge="1" parent="1" source="i35wyXqigZs_7jGTzk2A-17" target="i35wyXqigZs_7jGTzk2A-15">
          <mxGeometry width="50" height="50" relative="1" as="geometry">
            <mxPoint x="390" y="1540" as="sourcePoint" />
            <mxPoint x="440" y="1490" as="targetPoint" />
          </mxGeometry>
        </mxCell>
        <mxCell id="i35wyXqigZs_7jGTzk2A-22" value="include" style="endArrow=none;dashed=1;html=1;rounded=0;fontSize=10;entryX=1;entryY=0.5;entryDx=0;entryDy=0;exitX=0;exitY=0;exitDx=0;exitDy=0;" edge="1" parent="1" source="i35wyXqigZs_7jGTzk2A-20" target="i35wyXqigZs_7jGTzk2A-17">
          <mxGeometry width="50" height="50" relative="1" as="geometry">
            <mxPoint x="390" y="1540" as="sourcePoint" />
            <mxPoint x="440" y="1490" as="targetPoint" />
          </mxGeometry>
        </mxCell>
      </root>
    </mxGraphModel>
  </diagram>
</mxfile>
